PathFileType	4	(X/Y/Z)	C:/Users/beibeiliu/ov580/test_trc/capture2\sequence.31_training_dense_right.trc
DataRate	CameraRate	NumFrames	NumMarkers	Units	OrigDataRate	OrigDataStartFrame	OrigNumFrames
120	120	12	19	mm	120	201	400
Frame#	Time	ThumbCMC			ThumbMCP			ThumbIP			ThumbTip			IndexMCP			IndexPIP			IndexTip			MiddleMCP			MiddlePIP			MiddleTip			RingMCP			RingPIP			RingTip			PinkyMCP			PinkyPIP			PinkyTip			BackHand1			BackHand2			BackHand3	
		X0	Y0	Z0	X1	Y1	Z1	X2	Y2	Z2	X3	Y3	Z3	X4	Y4	Z4	X5	Y5	Z5	X6	Y6	Z6	X7	Y7	Z7	X8	Y8	Z8	X9	Y9	Z9	X10	Y10	Z10	X11	Y11	Z11	X12	Y12	Z12	X13	Y13	Z13	X14	Y14	Z14	X15	Y15	Z15	X16	Y16	Z16	X17	Y17	Z17	X18	Y18	Z18	
200	1.66667	118.323	31.422	35.6236	104.65	32.7583	10.4702	105.179	35.2358	-20.1137	105.763	32.8599	-41.7407	136.199	23.8183	-34.1397	110.694	7.75527	-46.4448	93.5372	1.41872	-20.0721	141.297	0.0869021	-36.9295	113.738	-12.1938	-39.2915	103.408	-9.16686	-2.64	144.059	-17.6623	-29.4907	113.695	-25.7254	-23.5337	111.803	-13.6951	9.39039	149.255	-33.5586	-17.2362	117.288	-31.6371	-11.8387	116.714	-16.3292	15.528	169.819	1.21752	19.3521	165.752	-1.56339	54.5829	155.003	27.542	32.6874	
201	1.675	114.412	32.7874	37.7016	102.274	32.7526	6.86887	100.581	34.5983	-16.3681	103.04	31.3065	-41.5517	134.216	26.4088	-34.0808	110.752	6.09502	-46.4293	94.2271	0.104791	-19.6715	142.547	2.51793	-36.2981	112.708	-8.95515	-40.0793	105.376	-6.71945	-0.533774	147.917	-14.74	-28.4015	119.033	-27.7702	-25.7583	112.362	-12.4227	5.62956	153.104	-28.0476	-17.1311	123.208	-35.1374	-13.6934	121.424	-17.259	15.0178	172.131	1.24204	18.4723	166.65	6.26655	49.9462	149.173	32.2058	33.9821	
202	1.68333	114.202	30.5706	34.3654	100.303	28.5688	8.97635	98.1263	32.1441	-19.6333	104.15	26.8884	-41.8935	130.893	27.6899	-38.0439	110.545	6.24312	-46.1268	97.2101	-2.72394	-17.1817	141.593	9.30811	-35.4933	115.462	-12.3561	-38.5849	106.549	-7.76971	-4.72104	146.58	-9.16055	-31.3312	119.967	-25.372	-23.9324	116.598	-14.9173	5.79895	155.435	-26.1045	-19.4495	126.517	-31.6641	-13.8388	124.366	-18.4215	16.8396	173.5	8.42615	20.0825	168.341	6.18903	48.6596	149.584	33.2557	32.3768	
203	1.69167	111.462	32.9196	32.067	97.2254	28.6629	7.84783	97.5363	28.0077	-20.1653	100.758	24.3958	-44.2211	130.003	27.4438	-38.7489	110.044	7.65847	-48.073	96.7845	-1.78457	-15.4456	141.629	7.50971	-39.8943	118.075	-11.7004	-38.7951	112.79	-10.0798	-1.63305	150.078	-10.2149	-31.1081	121.785	-24.5324	-22.7035	122.681	-13.3805	9.04162	155.122	-22.1943	-21.7632	129.414	-29.4537	-11.2754	127.616	-17.5094	15.69	173.595	12.5889	17.5098	170.747	9.46067	51.9189	149.999	37.5832	29.7341	
204	1.7	112.109	28.5534	34.2159	100.159	23.2079	6.47968	94.9262	25.7961	-20.6685	98.0341	20.9216	-42.5456	133.255	26.1402	-40.1449	111.409	6.01059	-48.2981	102.409	-6.22949	-16.1114	144.226	7.04531	-39.1082	122.382	-14.7763	-37.9417	112.959	-9.22725	-2.12019	149.266	-8.87788	-33.5232	126.099	-27.01	-20.8011	123.687	-10.6329	8.16214	159.706	-19.8776	-20.4163	134.275	-33.0972	-9.3555	131.021	-16.5854	15.7874	173.156	13.2116	17.2971	170.514	12.8808	47.6489	148.818	36.9792	30.1615	
205	1.70833	112.013	27.065	31.5631	95.6054	22.6422	7.44012	93.4409	22.1071	-19.9466	99.6424	17.3611	-43.6609	133.103	26.4033	-40.2491	113.734	4.78778	-49.7277	103.071	-9.02236	-25.8539	146.373	8.82692	-36.6181	124.633	-14.2299	-38.5115	118.04	-8.9608	0.856751	152.821	-10.2421	-33.6876	128.787	-24.6942	-24.3766	125.359	-11.3476	5.98005	162.466	-16.4611	-18.9422	136.403	-31.4389	-11.8016	132.982	-14.2119	16.6195	177.09	15.1881	15.9683	168.685	17.1674	49.0044	150.027	37.6728	29.0816	
206	1.71667	111.468	26.975	30.8989	96.775	18.7878	4.24143	92.087	18.4829	-23.6105	96.2201	14.5603	-45.0064	134.665	28.3036	-39.708	117.82	8.10333	-53.1905	103.736	-11.7093	-29.9191	146.283	11.2614	-36.9832	125.682	-15.0948	-39.0103	117.447	-8.95658	-1.38204	154.953	-6.27428	-30.9001	129.2	-25.7037	-20.2751	129.89	-10.3011	10.6684	162.88	-16.1276	-19.6252	135.723	-28.2184	-10.5903	134.546	-14.4559	16.3578	172.737	19.7977	15.6235	170.413	15.9539	45.8038	148.245	36.3278	28.4497	
207	1.725	109.34	24.125	33.9034	98.1154	14.9384	5.06986	89.9042	15.4526	-22.5743	94.176	10.4821	-43.7998	132.301	32.6306	-39.1899	121.692	10.1393	-56.8292	105.835	-11.6264	-42.2843	141.999	10.3891	-40.1748	125.408	-13.3563	-39.4272	116.634	-7.35883	-1.27663	154.018	-3.62223	-29.7128	129.523	-24.2339	-18.6902	129.103	-11.4033	8.96469	162.947	-13.1198	-18.4754	138.583	-30.4135	-6.86813	135.769	-12.2135	17.511	172.433	22.5226	16.3641	170.826	18.2848	50.3892	145.882	39.1795	32.2532	
208	1.73333	107.042	23.022	33.0426	93.4008	11.9801	7.45748	91.4615	10.5156	-22.1157	98.1246	6.20712	-47.0587	129.397	36.7472	-36.3115	121.009	19.3739	-58.73	104.358	-13.6216	-52.4882	139.25	14.4048	-39.7721	125.395	-13.0477	-39.735	118.408	-10.9578	-2.63662	150.552	0.280893	-30.9635	131.218	-20.7867	-24.0807	129.924	-9.82702	9.31731	158.977	-12.9044	-21.2038	141.294	-29.7783	-8.47764	136.618	-11.5254	18.1243	168.396	24.4786	16.2286	167.845	22.5823	46.4847	143.787	39.6314	28.4102	
209	1.74167	103.33	20.7144	34.7931	93.8161	8.08642	5.7578	92.1007	4.98925	-19.7766	102.168	0.00666141	-45.5035	125.197	38.0999	-33.0964	118.878	19.2617	-58.4628	109.134	-8.68047	-61.0031	140.02	17.0052	-36.722	125.201	-12.0291	-39.6806	116.028	-9.83776	-3.80455	149.249	2.20612	-31.6138	130.875	-22.34	-17.85	132.921	-5.82403	12.0079	159.156	-8.83665	-21.1422	138.383	-24.8247	-6.48345	138.012	-9.28133	19.7266	169.924	25.5547	14.5723	167.213	21.4321	47.1459	141.772	38.4696	30.3168	
210	1.75	107.579	18.1153	35.7871	96.7525	5.80465	5.06177	94.9347	1.31723	-21.7576	101.976	-3.61095	-40.5844	121.244	38.4082	-35.8782	116.956	22.1729	-57.9173	103.494	-9.43032	-63.6104	137.125	16.7999	-40.7525	119.908	-8.4316	-40.7738	116.885	-11.4546	-5.79888	149.969	5.27438	-31.2029	130.111	-18.47	-21.734	129.022	-6.24136	8.39512	162.624	-4.89556	-20.4778	140.817	-23.3766	-8.99523	139.635	-7.29489	17.5535	164.38	29.4721	16.2437	164.982	25.9257	49.6867	137.767	41.2806	32.9881	
211	1.75833	101.876	17.1123	33.8743	90.2244	1.4702	7.86121	89.5574	-2.54062	-22.0219	102.349	-7.02832	-44.9149	117.279	38.2212	-37.1243	111.315	22.3218	-59.2706	102.254	-9.4438	-64.5575	134.073	22.5355	-38.4789	122.511	-6.45465	-42.8708	117.031	-11.9154	-7.03121	145.297	5.83156	-33.6653	133.042	-20.4563	-23.0555	132.772	-7.98585	8.21398	160.38	-4.49604	-22.9467	142.772	-22.2573	-13.3736	140.95	-6.55843	18.4679	162.732	32.982	13.8627	164.7	24.6089	48.0901	136.873	42.3282	30.7903	
